<svg width="30" height="31" viewBox="0 0 30 31" fill="none" xmlns="http://www.w3.org/2000/svg">
<circle cx="15" cy="15.0909" r="15" fill="#EF5285"/>
<path d="M19.4806 6.09094H10.5192C7.4759 6.09094 5 8.44314 5 11.3342V19.8475C5 22.7387 7.4759 25.0908 10.5192 25.0908H19.4806C22.5241 25.0908 25 22.7386 25 19.8475V11.3342C25.0001 8.44314 22.5241 6.09094 19.4806 6.09094ZM23.2256 19.8475C23.2256 21.8092 21.5456 23.4051 19.4807 23.4051H10.5192C8.45435 23.4052 6.7745 21.8092 6.7745 19.8475V11.3342C6.7745 9.37267 8.45435 7.7767 10.5192 7.7767H19.4806C21.5455 7.7767 23.2255 9.37267 23.2255 11.3342V19.8475H23.2256Z" fill="white"/>
<path d="M15.0004 10.6953C12.1587 10.6953 9.84692 12.8915 9.84692 15.5911C9.84692 18.2906 12.1587 20.4867 15.0004 20.4867C17.8421 20.4867 20.1539 18.2906 20.1539 15.5911C20.1539 12.8915 17.8421 10.6953 15.0004 10.6953ZM15.0004 18.8008C13.1373 18.8008 11.6214 17.3609 11.6214 15.591C11.6214 13.8209 13.1372 12.381 15.0004 12.381C16.8636 12.381 18.3794 13.8209 18.3794 15.591C18.3794 17.3609 16.8635 18.8008 15.0004 18.8008Z" fill="white"/>
<path d="M20.3699 9.26587C20.028 9.26587 19.6922 9.39736 19.4507 9.62775C19.2081 9.85701 19.0686 10.1762 19.0686 10.5021C19.0686 10.827 19.2082 11.1461 19.4507 11.3764C19.692 11.6057 20.028 11.7383 20.3699 11.7383C20.713 11.7383 21.0478 11.6057 21.2903 11.3764C21.5328 11.1461 21.6712 10.8269 21.6712 10.5021C21.6712 10.1762 21.5328 9.85701 21.2903 9.62775C21.0489 9.39736 20.713 9.26587 20.3699 9.26587Z" fill="white"/>
</svg>
