<svg width="120" height="140" viewBox="0 0 120 140" fill="none" xmlns="http://www.w3.org/2000/svg">
<rect y="10" width="120" height="120" rx="8" fill="#008DB1"/>
<path d="M52.8 109C72.7 109 83.3 101.5 83.3 87.9C83.3 78.9 79.9 73.5 65.9 67.2C54.5 62.1 52.2 60.3 52.2 56.1C52.2 52.1 55.7 50.1 65 50.1C70 50.1 73.9 50.4 79.7 51.2L78.8 38.1C75.1 37.6 71 37.1 65.2 37.1C46.6 37.1 36.6 44.3 36.6 56.8C36.6 67.7 42.3 72.7 54.3 77.9C65.6 82.7 67.8 84.8 67.8 88.8C67.8 93.4 62.8 96 52.1 96C47.5 96 43.3 95.6 38.1 94.9L38.9 108C43.6 108.6 48.2 109 52.8 109Z" fill="white"/>
</svg>
