<svg width="30" height="31" viewBox="0 0 30 31" fill="none" xmlns="http://www.w3.org/2000/svg">
<circle cx="15" cy="15.0909" r="15" fill="#FFC905"/>
<path fill-rule="evenodd" clip-rule="evenodd" d="M26.9012 8.78198C27.0727 7.81901 27.0689 6.82882 26.4742 6.07997C25.6444 5.02998 23.8781 4.99135 22.6681 5.17664C21.6838 5.32713 18.3543 6.79608 17.2214 10.3128C19.2286 10.1602 20.2806 10.4575 20.0875 12.6674C20.0066 13.592 19.5395 14.605 19.0182 15.5761C18.4159 16.6956 17.2869 18.8938 15.8065 17.3093C14.473 15.8832 14.5731 13.1557 14.2682 11.3394C14.0984 10.3204 13.9189 9.05045 13.585 8.00231C13.2973 7.10097 12.6375 6.01427 11.8306 5.77876C10.964 5.52408 9.89259 5.92158 9.26341 6.29225C7.25989 7.46957 5.73298 9.14482 4 10.5268C4.28212 11.1313 4.43599 11.5229 4.94166 11.5962C6.13462 11.7719 7.27154 10.4844 8.06463 11.824C8.54715 12.6424 8.69787 13.5398 9.00659 14.4222C9.41958 15.5973 9.73804 16.877 10.0758 18.2282C10.6471 20.5172 11.3498 23.9374 13.3282 24.7751C14.3375 25.2038 15.8548 24.6303 16.623 24.1748C18.7036 22.9435 20.325 21.1582 21.7127 19.3419C24.8858 15.0433 26.6365 10.1737 26.9012 8.78198Z" fill="white"/>
</svg>
